<svg width="100" height="100" viewBox="0 0 100 100" fill="none" xmlns="http://www.w3.org/2000/svg">
  <path d="M10 20C10 20 15 30 25 25C35 20 30 10 25 5C20 0 10 5 10 20Z" fill="#4CAF50" fill-opacity="0.1"/>
  <path d="M80 70C80 70 85 80 95 75C105 70 100 60 95 55C90 50 80 55 80 70Z" fill="#4CAF50" fill-opacity="0.1"/>
  <path d="M50 40C50 40 55 50 65 45C75 40 70 30 65 25C60 20 50 25 50 40Z" fill="#4CAF50" fill-opacity="0.1"/>
  <path d="M20 80C20 80 25 90 35 85C45 80 40 70 35 65C30 60 20 65 20 80Z" fill="#4CAF50" fill-opacity="0.1"/>
</svg> 